# xmcd
#
# Track frame offsets: 
#        150
#        15190
#        30871
#        46057
#        59860
#        71874
#        89351
#        105283
#        133773
#        159676
#        177853
#        192958
#        222491
#
# Disc length: 3286 seconds
#
# Revision: 0
# Processed by: cddbd v1.5.2PL0 Copyright (c) Steve Scherf et al.
# Submitted via: ExactAudioCopy v0.99pb3
#
DISCID=ae0cd40d
DTITLE=Fernando e Sorocaba - Acustico
DYEAR=2010
DGENRE=Acoustic
TTITLE0=Abertura/Da Cor do Pecado
TTITLE1=A Casa Caiu
TTITLE2=Ateh o Final
TTITLE3=Celebridade
TTITLE4=Que Raiva Que Da - Aqui a Tristeza Pula de Alegria - O Mundo Avi
TTITLE4=sou
TTITLE5=Madri
TTITLE6=Chevetao
TTITLE7=Juliana - Forca de um Furacao - Estrela Solitaria
TTITLE8=Paga Pau
TTITLE9=Delegada - COM Joao Neto e Frederico
TTITLE10=Luz da Minha Manha - Sorry
TTITLE11=A Louca
TTITLE12=Vendaval - Bala de Prata
EXTD=
EXTT0=
EXTT1=
EXTT2=
EXTT3=
EXTT4=
EXTT5=
EXTT6=
EXTT7=
EXTT8=
EXTT9=
EXTT10=
EXTT11=
EXTT12=
PLAYORDER=
